<?xml version="1.0" encoding="utf-8"?>
<!-- Generator: Adobe Illustrator 24.0.0, SVG Export Plug-In . SVG Version: 6.00 Build 0)  -->
<svg version="1.1" id="Layer_1" xmlns="http://www.w3.org/2000/svg" xmlns:xlink="http://www.w3.org/1999/xlink" x="0px" y="0px"
	 viewBox="0 0 3357.1 1000" style="enable-background:new 0 0 3357.1 1000;" xml:space="preserve">
<style type="text/css">
	.st0{fill:#2AA5DE;}
	.st1{fill:url(#SVGID_1_);}
	.st2{fill:#FFFFFF;}
	.st3{fill-rule:evenodd;clip-rule:evenodd;fill:url(#SVGID_2_);}
	.st4{fill-rule:evenodd;clip-rule:evenodd;fill:url(#SVGID_3_);}
	.st5{fill-rule:evenodd;clip-rule:evenodd;fill:url(#SVGID_4_);}
	.st6{fill-rule:evenodd;clip-rule:evenodd;fill:url(#SVGID_5_);}
	.st7{fill-rule:evenodd;clip-rule:evenodd;fill:url(#SVGID_6_);}
</style>
<g id="BACKGROUND">
</g>
<g id="OBJECT">
	<g>
		<path class="st0" d="M1356.5,362.1l-35.8,62.3c-21.9-16.2-39.2-24.2-56.5-24.2c-21.9,0-36.9,10.4-36.9,27.7
			c0,15,8.1,23.1,41.5,39.2c53.1,25.4,71.5,48.5,71.5,91.1c0,64.6-51.9,110.8-123.5,110.8c-39.2,0-65.8-9.2-109.6-35.8l36.9-62.3
			c28.8,19.6,46.2,26.5,68.1,26.5c25.4,0,42.7-12.7,42.7-33.5c0-13.8-6.9-21.9-38.1-36.9c-57.7-28.8-75-49.6-75-93.5
			c0-58.8,50.8-101.5,118.8-101.5C1295.3,333.3,1324.2,342.5,1356.5,362.1z"/>
		<path class="st0" d="M1593,339.1l-9.2,71.5h-94.6l-6.9,54.2h92.3l-9.2,70.4H1473l-5.8,56.5h99.2l-9.2,71.5h-181.1l39.2-323.1H1593
			V339.1z"/>
		<path class="st0" d="M1888.3,359.8l-9.2,79.6c-24.2-19.6-49.6-30-79.6-30c-60,0-101.5,39.2-101.5,94.6c0,51.9,36.9,86.5,91.1,86.5
			c25.4,0,48.5-5.8,73.8-20.8l-10.4,81.9c-35.8,12.7-51.9,15-76.1,15c-95.8,0-162.7-66.9-162.7-160.4c0-98.1,77.3-175.4,176.5-175.4
			C1826,333.3,1854.9,340.2,1888.3,359.8z"/>
		<path class="st0" d="M2443.3,537.5l76.1,125.8h-94.6l-75-129.2l-15,128.1h-81.9l39.2-323.1h105c43.8,0,71.5,9.2,90,27.7
			c15,16.2,24.2,42.7,24.2,72.7c0,28.8-9.2,53.1-26.5,71.5C2473.3,523.7,2465.2,529.4,2443.3,537.5z M2366,404.8l-10.4,83.1h15
			c39.2,0,57.7-15,57.7-45c0-27.7-11.5-38.1-46.2-38.1H2366z"/>
		<path class="st0" d="M2769.8,339.1l-9.2,71.5H2666l-6.9,54.2h92.3l-9.2,70.4h-92.3l-6.9,56.5h99.2l-9.2,71.5h-181.1l39.2-323.1
			h178.8v-1H2769.8z"/>
	</g>
	<g>
		<g>
			
				<linearGradient id="SVGID_1_" gradientUnits="userSpaceOnUse" x1="2723.9844" y1="1601.0731" x2="3135.6775" y2="983.5339" gradientTransform="matrix(1 0 0 1 0 -598)">
				<stop  offset="0" style="stop-color:#386AB3"/>
				<stop  offset="1" style="stop-color:#468CC7"/>
			</linearGradient>
			<path class="st1" d="M3136.7,494.2l173.1,286.1h-162.7l-50.8-84.2c-16.2-26.5-33.5-61.1-51.9-106.1
				c-18.5,32.3-34.6,56.5-54.2,80.8l-87.7,108.5H2726L2969.4,485L2809,219.6h163.8l36.9,65.8c23.1,41.5,32.3,61.1,50.8,102.7
				c28.8-43.8,40.4-62.3,56.5-80.8l68.1-87.7H3357L3136.7,494.2z"/>
		</g>
	</g>
	<g>
		<polygon class="st0" points="2224.1,335 2213.3,423.4 2213.3,423.4 2224.1,336.2 		"/>
		<polygon class="st0" points="1942.6,335 1932,423.4 1932,423.4 		"/>
		<polygon class="st0" points="2141,335 2024.5,335 1942.6,335 1932,423.4 2014,423.4 2130.5,423.4 2213.3,423.4 2224.1,335 		"/>
		<path class="st0" d="M2127,453.1l-7.9,66.5c-1.1,8.8-2.1,15.9-3.4,21.9c-2.9,13.8-6.7,22-13.9,30c-9.2,10.4-25.4,16.2-46.2,16.2
			c-34,0-51.1-15.8-52.8-46.1c-0.1-1.6-0.3-3-0.3-4.6c0-9.2,0-18.5,1.2-27.7l6.7-56.1h-81.9l-6.7,56.1c-1.5,13.2-2.4,23.8-2.9,32.3
			c-0.3,4.9-0.5,9.3-0.5,12.7c0,69.2,50.8,110.8,135,110.8c47.3,0,86.5-12.7,110.8-35.8c18.6-17.5,27-38.8,34.3-87.7
			c0.9-5.8,1.7-11.9,2.6-18.5l8.6-70L2127,453.1L2127,453.1z"/>
		<path class="st0" d="M2209.7,453.1L2209.7,453.1L2209.7,453.1z"/>
	</g>
</g>
<g>
	<path class="st2" d="M257.3,742c0,0-56.8-94.3-62.9-124c-6.1-29.7,500.3-533.8,500.3-533.8l37.5,1.8c0,0,103.3-21.3,147,80.8
		l27.1,112.9L741.1,591.9L490,697.8c0,0-125.2,33.1-129.5,34.2C356.2,733,257.3,742,257.3,742z"/>
	<g id="OBJECT_1_">
		<g>
			
				<radialGradient id="SVGID_2_" cx="522.5152" cy="1774.8807" r="2360.394" gradientTransform="matrix(1 0 0 -1 0 1002)" gradientUnits="userSpaceOnUse">
				<stop  offset="0" style="stop-color:#FFFFFF"/>
				<stop  offset="0.5" style="stop-color:#26B3E8"/>
				<stop  offset="1" style="stop-color:#3D419A"/>
			</radialGradient>
			<path class="st3" d="M200,631C311.8,573.3,464.5,460,643,274.9c-9.9-18.3-15.3-39.1-15.3-61.2c0-63.1,44.8-115.7,104.5-127.6
				C678.9,38.9,621.4,2.4,544.6,2.4c-189,0-261.9,219.4-434.8,280.2c5.1,53.3,14.7,110.2,29.1,167.7C154,510.8,174.4,572.1,200,631
				L200,631z M757.9,265.2c28.4,0,51.5-23.1,51.5-51.5c0-28.5-23.1-51.6-51.5-51.6c-28.5,0-51.6,23.1-51.6,51.6
				C706.2,242.1,729.4,265.2,757.9,265.2L757.9,265.2z M821.3,100.1c46.6,26.1,72.4,77.7,65.5,130.5c-8.3,63.9-63,113.1-128.9,113.1
				c-7.9,0-15.6-0.6-23-1.9c-126.5,173.5-271.8,328.4-430.3,470c63.8,83.8,143.4,150.7,240.1,185.9
				c271.9-99,409.5-449.3,434.9-715.1c-22.8-8-43.7-18.9-63.6-31.4C929.2,184,888,117.5,821.3,100.1L821.3,100.1z"/>
			
				<radialGradient id="SVGID_3_" cx="-147.325" cy="-11.3633" r="823.2312" gradientTransform="matrix(1 0 0 -1 0 1002)" gradientUnits="userSpaceOnUse">
				<stop  offset="0" style="stop-color:#FFFFFF"/>
				<stop  offset="0.5" style="stop-color:#26B3E8"/>
				<stop  offset="1" style="stop-color:#3D419A"/>
			</radialGradient>
			<path class="st4" d="M200,631c-25.7-58.9-46-120.3-61.1-180.8C-82,642.5-21.7,745.8,200,631L200,631z"/>
			<g>
				
					<linearGradient id="SVGID_4_" gradientUnits="userSpaceOnUse" x1="307.3543" y1="736.4174" x2="575.4651" y2="498.7045" gradientTransform="matrix(1 0 0 -1 0 1002)">
					<stop  offset="0" style="stop-color:#54C9ED"/>
					<stop  offset="1" style="stop-color:#FFFFFF"/>
				</linearGradient>
				<path class="st5" d="M757.9,343.8c66,0,120.7-49.2,128.9-113.1c-12.4-9.5-24.4-19.6-36-30.1c0.6,4.3,1,8.6,1,13.2
					c0,51.7-42.1,93.9-93.9,93.9c-20.1,0-38.6-6.3-53.9-17C570.2,453,412.9,595.6,246.7,723.9c17.5,30.8,36.9,60.4,58,88
					c158.5-141.6,303.8-296.5,430.3-470C742.3,343.1,749.9,343.8,757.9,343.8L757.9,343.8z"/>
				
					<linearGradient id="SVGID_5_" gradientUnits="userSpaceOnUse" x1="494.1643" y1="788.4499" x2="790.1482" y2="788.4499" gradientTransform="matrix(1 0 0 -1 0 1002)">
					<stop  offset="0" style="stop-color:#54C9ED"/>
					<stop  offset="1" style="stop-color:#FFFFFF"/>
				</linearGradient>
				<path class="st6" d="M851.7,213.7c0-51.9-42.1-94-93.9-94c-51.9,0-94,42.1-94,94c0,31.8,15.8,59.9,40.1,76.8
					c15.3,10.7,33.9,17,53.9,17C809.6,307.6,851.7,265.5,851.7,213.7L851.7,213.7z M757.9,162.1c28.4,0,51.5,23.1,51.5,51.6
					c0,28.4-23.1,51.5-51.5,51.5c-28.5,0-51.6-23.1-51.6-51.5C706.2,185.2,729.4,162.1,757.9,162.1L757.9,162.1z"/>
			</g>
			
				<radialGradient id="SVGID_6_" cx="-55.1814" cy="1881.2085" r="2177.8752" gradientTransform="matrix(1 0 0 -1 0 1002)" gradientUnits="userSpaceOnUse">
				<stop  offset="0" style="stop-color:#FFFFFF"/>
				<stop  offset="0.5" style="stop-color:#26B3E8"/>
				<stop  offset="1" style="stop-color:#3D419A"/>
			</radialGradient>
			<path class="st7" d="M748.2,378.2c-124.1,167.5-262.5,326.7-418,465.4c24.5,29.3,52.2,55,81.1,78.7
				c142-156,263.1-327.5,370.7-509.2c81.1-5.4,146.7-68.8,154.4-149.8c-6.9-3.8-13.6-7.9-20.3-12.1
				C897.5,328,827.1,381.1,748.2,378.2L748.2,378.2z"/>
		</g>
	</g>
</g>
</svg>
